<svg id="svg" version="1.1" xmlns="http://www.w3.org/2000/svg" xmlns:xlink="http://www.w3.org/1999/xlink" width="400" height="327.61904761904765" viewBox="0, 0, 400,327.61904761904765"><g id="svgg"><path id="path0" d="M0.000 163.934 L 0.000 327.869 200.000 327.869 L 400.000 327.869 400.000 163.934 L 400.000 0.000 200.000 0.000 L 0.000 0.000 0.000 163.934 M361.967 163.934 L 361.967 289.836 199.016 289.836 L 36.066 289.836 36.066 163.934 L 36.066 38.033 199.016 38.033 L 361.967 38.033 361.967 163.934 M72.459 127.705 L 72.459 182.951 108.689 182.951 L 144.918 182.951 144.918 200.164 L 144.918 217.377 108.689 217.377 L 72.459 217.377 72.459 236.393 L 72.459 255.410 127.541 255.410 L 182.623 255.410 182.623 163.934 L 182.623 72.459 127.541 72.459 L 72.459 72.459 72.459 127.705 M217.377 163.934 L 217.377 255.410 236.230 255.410 L 255.082 255.410 255.082 219.180 L 255.082 182.951 291.311 182.951 L 327.541 182.951 327.541 127.705 L 327.541 72.459 308.525 72.459 L 289.508 72.459 289.508 108.689 L 289.508 144.918 272.295 144.918 L 255.082 144.918 255.082 108.689 L 255.082 72.459 236.230 72.459 L 217.377 72.459 217.377 163.934 M144.918 127.705 L 144.918 144.918 127.705 144.918 L 110.492 144.918 110.492 127.705 L 110.492 110.492 127.705 110.492 L 144.918 110.492 144.918 127.705 M289.508 236.393 L 289.508 255.410 308.525 255.410 L 327.541 255.410 327.541 236.393 L 327.541 217.377 308.525 217.377 L 289.508 217.377 289.508 236.393 " stroke="none" fill="#fcbc14" fill-rule="evenodd"></path><path id="path1" d="M182.785 163.934 C 182.785 214.336,182.822 234.955,182.869 209.754 C 182.915 184.553,182.915 143.316,182.869 118.115 C 182.822 92.914,182.785 113.533,182.785 163.934 M217.211 163.934 C 217.211 214.336,217.249 234.955,217.295 209.754 C 217.341 184.553,217.341 143.316,217.295 118.115 C 217.249 92.914,217.211 113.533,217.211 163.934 M255.240 108.689 C 255.240 128.705,255.280 136.845,255.328 126.778 C 255.376 116.711,255.376 100.334,255.328 90.385 C 255.280 80.435,255.240 88.672,255.240 108.689 M144.743 127.705 C 144.743 137.262,144.785 141.125,144.836 136.288 C 144.887 131.452,144.887 123.632,144.836 118.911 C 144.785 114.190,144.743 118.148,144.743 127.705 M144.743 200.164 C 144.743 209.721,144.785 213.584,144.836 208.747 C 144.887 203.911,144.887 196.091,144.836 191.370 C 144.785 186.649,144.743 190.607,144.743 200.164 M255.240 219.180 C 255.240 239.197,255.280 247.337,255.328 237.270 C 255.376 227.203,255.376 210.826,255.328 200.876 C 255.280 190.927,255.240 199.164,255.240 219.180 " stroke="none" fill="#bcc00c" fill-rule="evenodd"></path><path id="path2" d="M182.785 163.934 C 182.785 214.336,182.822 234.955,182.869 209.754 C 182.915 184.553,182.915 143.316,182.869 118.115 C 182.822 92.914,182.785 113.533,182.785 163.934 M217.211 163.934 C 217.211 214.336,217.249 234.955,217.295 209.754 C 217.341 184.553,217.341 143.316,217.295 118.115 C 217.249 92.914,217.211 113.533,217.211 163.934 M255.240 108.689 C 255.240 128.705,255.280 136.845,255.328 126.778 C 255.376 116.711,255.376 100.334,255.328 90.385 C 255.280 80.435,255.240 88.672,255.240 108.689 M144.743 127.705 C 144.743 137.262,144.785 141.125,144.836 136.288 C 144.887 131.452,144.887 123.632,144.836 118.911 C 144.785 114.190,144.743 118.148,144.743 127.705 M144.743 200.164 C 144.743 209.721,144.785 213.584,144.836 208.747 C 144.887 203.911,144.887 196.091,144.836 191.370 C 144.785 186.649,144.743 190.607,144.743 200.164 M255.240 219.180 C 255.240 239.197,255.280 247.337,255.328 237.270 C 255.376 227.203,255.376 210.826,255.328 200.876 C 255.280 190.927,255.240 199.164,255.240 219.180 " stroke="none" fill="#bcc00c" fill-rule="evenodd"></path><path id="path3" d="M182.785 163.934 C 182.785 214.336,182.822 234.955,182.869 209.754 C 182.915 184.553,182.915 143.316,182.869 118.115 C 182.822 92.914,182.785 113.533,182.785 163.934 M217.211 163.934 C 217.211 214.336,217.249 234.955,217.295 209.754 C 217.341 184.553,217.341 143.316,217.295 118.115 C 217.249 92.914,217.211 113.533,217.211 163.934 M255.240 108.689 C 255.240 128.705,255.280 136.845,255.328 126.778 C 255.376 116.711,255.376 100.334,255.328 90.385 C 255.280 80.435,255.240 88.672,255.240 108.689 M144.743 127.705 C 144.743 137.262,144.785 141.125,144.836 136.288 C 144.887 131.452,144.887 123.632,144.836 118.911 C 144.785 114.190,144.743 118.148,144.743 127.705 M144.743 200.164 C 144.743 209.721,144.785 213.584,144.836 208.747 C 144.887 203.911,144.887 196.091,144.836 191.370 C 144.785 186.649,144.743 190.607,144.743 200.164 M255.240 219.180 C 255.240 239.197,255.280 247.337,255.328 237.270 C 255.376 227.203,255.376 210.826,255.328 200.876 C 255.280 190.927,255.240 199.164,255.240 219.180 " stroke="none" fill="#bcc00c" fill-rule="evenodd"></path><path id="path4" d="M182.785 163.934 C 182.785 214.336,182.822 234.955,182.869 209.754 C 182.915 184.553,182.915 143.316,182.869 118.115 C 182.822 92.914,182.785 113.533,182.785 163.934 M217.211 163.934 C 217.211 214.336,217.249 234.955,217.295 209.754 C 217.341 184.553,217.341 143.316,217.295 118.115 C 217.249 92.914,217.211 113.533,217.211 163.934 M255.240 108.689 C 255.240 128.705,255.280 136.845,255.328 126.778 C 255.376 116.711,255.376 100.334,255.328 90.385 C 255.280 80.435,255.240 88.672,255.240 108.689 M144.743 127.705 C 144.743 137.262,144.785 141.125,144.836 136.288 C 144.887 131.452,144.887 123.632,144.836 118.911 C 144.785 114.190,144.743 118.148,144.743 127.705 M144.743 200.164 C 144.743 209.721,144.785 213.584,144.836 208.747 C 144.887 203.911,144.887 196.091,144.836 191.370 C 144.785 186.649,144.743 190.607,144.743 200.164 M255.240 219.180 C 255.240 239.197,255.280 247.337,255.328 237.270 C 255.376 227.203,255.376 210.826,255.328 200.876 C 255.280 190.927,255.240 199.164,255.240 219.180 " stroke="none" fill="#bcc00c" fill-rule="evenodd"></path></g></svg>